<mxfile host="app.diagrams.net" modified="2023-10-29T04:04:51.762Z" agent="Mozilla/5.0 (Windows NT 10.0; Win64; x64) AppleWebKit/537.36 (KHTML, like Gecko) Chrome/118.0.0.0 Safari/537.36" etag="fi-d4RmgYANzdt_lY6ed" version="22.0.8" type="github">
  <diagram id="C5RBs43oDa-KdzZeNtuy" name="Page-1">
    <mxGraphModel dx="1687" dy="918" grid="1" gridSize="10" guides="1" tooltips="1" connect="1" arrows="1" fold="1" page="1" pageScale="1" pageWidth="827" pageHeight="1169" math="0" shadow="0">
      <root>
        <mxCell id="WIyWlLk6GJQsqaUBKTNV-0" />
        <mxCell id="WIyWlLk6GJQsqaUBKTNV-1" parent="WIyWlLk6GJQsqaUBKTNV-0" />
        <mxCell id="WIyWlLk6GJQsqaUBKTNV-6" value="for i = 1 to 50" style="rhombus;whiteSpace=wrap;html=1;shadow=0;fontFamily=Helvetica;fontSize=12;align=center;strokeWidth=1;spacing=6;spacingTop=-4;" parent="WIyWlLk6GJQsqaUBKTNV-1" vertex="1">
          <mxGeometry x="194" y="650" width="100" height="80" as="geometry" />
        </mxCell>
        <mxCell id="pKaPI90kB8utBbzEc85i-0" value="" style="ellipse;whiteSpace=wrap;html=1;" vertex="1" parent="WIyWlLk6GJQsqaUBKTNV-1">
          <mxGeometry x="184" y="80" width="120" height="80" as="geometry" />
        </mxCell>
        <mxCell id="pKaPI90kB8utBbzEc85i-1" value="Start" style="text;html=1;strokeColor=none;fillColor=none;align=center;verticalAlign=middle;whiteSpace=wrap;rounded=0;" vertex="1" parent="WIyWlLk6GJQsqaUBKTNV-1">
          <mxGeometry x="214" y="105" width="60" height="30" as="geometry" />
        </mxCell>
        <mxCell id="pKaPI90kB8utBbzEc85i-4" value="i &amp;gt;50" style="rounded=0;html=1;jettySize=auto;orthogonalLoop=1;fontSize=11;endArrow=block;endFill=0;endSize=8;strokeWidth=1;shadow=0;labelBackgroundColor=none;edgeStyle=orthogonalEdgeStyle;exitX=0.5;exitY=1;exitDx=0;exitDy=0;entryX=0.5;entryY=0;entryDx=0;entryDy=0;" edge="1" parent="WIyWlLk6GJQsqaUBKTNV-1" source="WIyWlLk6GJQsqaUBKTNV-6" target="pKaPI90kB8utBbzEc85i-5">
          <mxGeometry x="-0.0009" y="20" relative="1" as="geometry">
            <mxPoint as="offset" />
            <mxPoint x="254" y="470" as="sourcePoint" />
            <mxPoint x="364.00000000000006" y="420" as="targetPoint" />
            <Array as="points">
              <mxPoint x="244" y="740" />
              <mxPoint x="244" y="740" />
            </Array>
          </mxGeometry>
        </mxCell>
        <mxCell id="pKaPI90kB8utBbzEc85i-5" value="" style="ellipse;whiteSpace=wrap;html=1;" vertex="1" parent="WIyWlLk6GJQsqaUBKTNV-1">
          <mxGeometry x="184" y="778" width="120" height="80" as="geometry" />
        </mxCell>
        <mxCell id="pKaPI90kB8utBbzEc85i-6" value="End" style="text;html=1;strokeColor=none;fillColor=none;align=center;verticalAlign=middle;whiteSpace=wrap;rounded=0;" vertex="1" parent="WIyWlLk6GJQsqaUBKTNV-1">
          <mxGeometry x="214" y="803" width="60" height="30" as="geometry" />
        </mxCell>
        <mxCell id="pKaPI90kB8utBbzEc85i-8" value="if i % 15 == 0" style="rhombus;whiteSpace=wrap;html=1;shadow=0;fontFamily=Helvetica;fontSize=12;align=center;strokeWidth=1;spacing=6;spacingTop=-4;" vertex="1" parent="WIyWlLk6GJQsqaUBKTNV-1">
          <mxGeometry x="194" y="210" width="100" height="80" as="geometry" />
        </mxCell>
        <mxCell id="pKaPI90kB8utBbzEc85i-9" value="Yes&amp;nbsp;" style="rounded=0;html=1;jettySize=auto;orthogonalLoop=1;fontSize=11;endArrow=block;endFill=0;endSize=8;strokeWidth=1;shadow=0;labelBackgroundColor=none;edgeStyle=orthogonalEdgeStyle;exitX=0.5;exitY=1;exitDx=0;exitDy=0;entryX=0.5;entryY=0;entryDx=0;entryDy=0;" edge="1" parent="WIyWlLk6GJQsqaUBKTNV-1" source="pKaPI90kB8utBbzEc85i-8" target="pKaPI90kB8utBbzEc85i-17">
          <mxGeometry y="20" relative="1" as="geometry">
            <mxPoint as="offset" />
            <mxPoint x="254" y="300" as="sourcePoint" />
            <mxPoint x="244" y="460" as="targetPoint" />
            <Array as="points" />
          </mxGeometry>
        </mxCell>
        <mxCell id="pKaPI90kB8utBbzEc85i-10" value="No" style="rounded=0;html=1;jettySize=auto;orthogonalLoop=1;fontSize=11;endArrow=block;endFill=0;endSize=8;strokeWidth=1;shadow=0;labelBackgroundColor=none;edgeStyle=orthogonalEdgeStyle;exitX=1;exitY=0.5;exitDx=0;exitDy=0;entryX=0.5;entryY=0;entryDx=0;entryDy=0;" edge="1" parent="WIyWlLk6GJQsqaUBKTNV-1" source="pKaPI90kB8utBbzEc85i-8" target="pKaPI90kB8utBbzEc85i-13">
          <mxGeometry y="20" relative="1" as="geometry">
            <mxPoint as="offset" />
            <mxPoint x="464.00000000000006" y="310" as="sourcePoint" />
            <mxPoint x="504.00000000000006" y="390" as="targetPoint" />
          </mxGeometry>
        </mxCell>
        <mxCell id="pKaPI90kB8utBbzEc85i-11" value="1 &amp;gt;= i&amp;nbsp;" style="rounded=0;html=1;jettySize=auto;orthogonalLoop=1;fontSize=11;endArrow=block;endFill=0;endSize=8;strokeWidth=1;shadow=0;labelBackgroundColor=none;edgeStyle=orthogonalEdgeStyle;exitX=0;exitY=0.5;exitDx=0;exitDy=0;" edge="1" parent="WIyWlLk6GJQsqaUBKTNV-1" source="WIyWlLk6GJQsqaUBKTNV-6">
          <mxGeometry y="20" relative="1" as="geometry">
            <mxPoint as="offset" />
            <mxPoint x="274" y="320" as="sourcePoint" />
            <mxPoint x="244" y="180" as="targetPoint" />
            <Array as="points">
              <mxPoint x="133.94" y="690" />
              <mxPoint x="133.94" y="180" />
            </Array>
          </mxGeometry>
        </mxCell>
        <mxCell id="pKaPI90kB8utBbzEc85i-12" value="" style="rounded=0;html=1;jettySize=auto;orthogonalLoop=1;fontSize=11;endArrow=block;endFill=0;endSize=8;strokeWidth=1;shadow=0;labelBackgroundColor=none;edgeStyle=orthogonalEdgeStyle;exitX=0.5;exitY=1;exitDx=0;exitDy=0;entryX=0.5;entryY=0;entryDx=0;entryDy=0;" edge="1" parent="WIyWlLk6GJQsqaUBKTNV-1" source="pKaPI90kB8utBbzEc85i-0" target="pKaPI90kB8utBbzEc85i-8">
          <mxGeometry y="20" relative="1" as="geometry">
            <mxPoint as="offset" />
            <mxPoint x="284" y="330" as="sourcePoint" />
            <mxPoint x="354" y="390" as="targetPoint" />
          </mxGeometry>
        </mxCell>
        <mxCell id="pKaPI90kB8utBbzEc85i-13" value="if i % 5 == 0" style="rhombus;whiteSpace=wrap;html=1;shadow=0;fontFamily=Helvetica;fontSize=12;align=center;strokeWidth=1;spacing=6;spacingTop=-4;" vertex="1" parent="WIyWlLk6GJQsqaUBKTNV-1">
          <mxGeometry x="324.06" y="290" width="100" height="80" as="geometry" />
        </mxCell>
        <mxCell id="pKaPI90kB8utBbzEc85i-14" value="if i % 3 == 0" style="rhombus;whiteSpace=wrap;html=1;shadow=0;fontFamily=Helvetica;fontSize=12;align=center;strokeWidth=1;spacing=6;spacingTop=-4;" vertex="1" parent="WIyWlLk6GJQsqaUBKTNV-1">
          <mxGeometry x="454.06" y="370" width="100" height="80" as="geometry" />
        </mxCell>
        <mxCell id="pKaPI90kB8utBbzEc85i-15" value="No" style="rounded=0;html=1;jettySize=auto;orthogonalLoop=1;fontSize=11;endArrow=block;endFill=0;endSize=8;strokeWidth=1;shadow=0;labelBackgroundColor=none;edgeStyle=orthogonalEdgeStyle;exitX=1;exitY=0.5;exitDx=0;exitDy=0;entryX=0.5;entryY=0;entryDx=0;entryDy=0;" edge="1" parent="WIyWlLk6GJQsqaUBKTNV-1" source="pKaPI90kB8utBbzEc85i-13" target="pKaPI90kB8utBbzEc85i-14">
          <mxGeometry y="20" relative="1" as="geometry">
            <mxPoint as="offset" />
            <mxPoint x="304.06" y="260" as="sourcePoint" />
            <mxPoint x="384.06" y="300" as="targetPoint" />
          </mxGeometry>
        </mxCell>
        <mxCell id="pKaPI90kB8utBbzEc85i-17" value="" style="shape=parallelogram;perimeter=parallelogramPerimeter;whiteSpace=wrap;html=1;fixedSize=1;" vertex="1" parent="WIyWlLk6GJQsqaUBKTNV-1">
          <mxGeometry x="184" y="510" width="120" height="60" as="geometry" />
        </mxCell>
        <mxCell id="pKaPI90kB8utBbzEc85i-18" value="Divisible by both" style="text;html=1;strokeColor=none;fillColor=none;align=center;verticalAlign=middle;whiteSpace=wrap;rounded=0;" vertex="1" parent="WIyWlLk6GJQsqaUBKTNV-1">
          <mxGeometry x="214" y="525" width="60" height="30" as="geometry" />
        </mxCell>
        <mxCell id="pKaPI90kB8utBbzEc85i-19" value="" style="shape=parallelogram;perimeter=parallelogramPerimeter;whiteSpace=wrap;html=1;fixedSize=1;" vertex="1" parent="WIyWlLk6GJQsqaUBKTNV-1">
          <mxGeometry x="314.06" y="510" width="120" height="60" as="geometry" />
        </mxCell>
        <mxCell id="pKaPI90kB8utBbzEc85i-20" value="Divisible by five" style="text;html=1;strokeColor=none;fillColor=none;align=center;verticalAlign=middle;whiteSpace=wrap;rounded=0;" vertex="1" parent="WIyWlLk6GJQsqaUBKTNV-1">
          <mxGeometry x="344.06" y="525" width="60" height="30" as="geometry" />
        </mxCell>
        <mxCell id="pKaPI90kB8utBbzEc85i-21" value="" style="shape=parallelogram;perimeter=parallelogramPerimeter;whiteSpace=wrap;html=1;fixedSize=1;" vertex="1" parent="WIyWlLk6GJQsqaUBKTNV-1">
          <mxGeometry x="444.06" y="510" width="120" height="60" as="geometry" />
        </mxCell>
        <mxCell id="pKaPI90kB8utBbzEc85i-22" value="Divisible by three" style="text;html=1;strokeColor=none;fillColor=none;align=center;verticalAlign=middle;whiteSpace=wrap;rounded=0;" vertex="1" parent="WIyWlLk6GJQsqaUBKTNV-1">
          <mxGeometry x="474.06" y="525" width="60" height="30" as="geometry" />
        </mxCell>
        <mxCell id="pKaPI90kB8utBbzEc85i-23" value="" style="shape=parallelogram;perimeter=parallelogramPerimeter;whiteSpace=wrap;html=1;fixedSize=1;" vertex="1" parent="WIyWlLk6GJQsqaUBKTNV-1">
          <mxGeometry x="573.94" y="510" width="120" height="60" as="geometry" />
        </mxCell>
        <mxCell id="pKaPI90kB8utBbzEc85i-24" value="i" style="text;html=1;strokeColor=none;fillColor=none;align=center;verticalAlign=middle;whiteSpace=wrap;rounded=0;" vertex="1" parent="WIyWlLk6GJQsqaUBKTNV-1">
          <mxGeometry x="603.94" y="525" width="60" height="30" as="geometry" />
        </mxCell>
        <mxCell id="pKaPI90kB8utBbzEc85i-25" value="Yes&amp;nbsp;" style="rounded=0;html=1;jettySize=auto;orthogonalLoop=1;fontSize=11;endArrow=block;endFill=0;endSize=8;strokeWidth=1;shadow=0;labelBackgroundColor=none;edgeStyle=orthogonalEdgeStyle;exitX=0.5;exitY=1;exitDx=0;exitDy=0;entryX=0.5;entryY=0;entryDx=0;entryDy=0;" edge="1" parent="WIyWlLk6GJQsqaUBKTNV-1" source="pKaPI90kB8utBbzEc85i-13" target="pKaPI90kB8utBbzEc85i-19">
          <mxGeometry y="20" relative="1" as="geometry">
            <mxPoint as="offset" />
            <mxPoint x="253.94" y="300" as="sourcePoint" />
            <mxPoint x="253.94" y="520" as="targetPoint" />
            <Array as="points" />
          </mxGeometry>
        </mxCell>
        <mxCell id="pKaPI90kB8utBbzEc85i-26" value="Yes&amp;nbsp;" style="rounded=0;html=1;jettySize=auto;orthogonalLoop=1;fontSize=11;endArrow=block;endFill=0;endSize=8;strokeWidth=1;shadow=0;labelBackgroundColor=none;edgeStyle=orthogonalEdgeStyle;exitX=0.5;exitY=1;exitDx=0;exitDy=0;entryX=0.5;entryY=0;entryDx=0;entryDy=0;" edge="1" parent="WIyWlLk6GJQsqaUBKTNV-1" source="pKaPI90kB8utBbzEc85i-14" target="pKaPI90kB8utBbzEc85i-21">
          <mxGeometry y="20" relative="1" as="geometry">
            <mxPoint as="offset" />
            <mxPoint x="383.94" y="380" as="sourcePoint" />
            <mxPoint x="383.94" y="520" as="targetPoint" />
            <Array as="points" />
          </mxGeometry>
        </mxCell>
        <mxCell id="pKaPI90kB8utBbzEc85i-27" value="No" style="rounded=0;html=1;jettySize=auto;orthogonalLoop=1;fontSize=11;endArrow=block;endFill=0;endSize=8;strokeWidth=1;shadow=0;labelBackgroundColor=none;edgeStyle=orthogonalEdgeStyle;exitX=1;exitY=0.5;exitDx=0;exitDy=0;entryX=0.5;entryY=0;entryDx=0;entryDy=0;" edge="1" parent="WIyWlLk6GJQsqaUBKTNV-1" source="pKaPI90kB8utBbzEc85i-14" target="pKaPI90kB8utBbzEc85i-23">
          <mxGeometry y="20" relative="1" as="geometry">
            <mxPoint as="offset" />
            <mxPoint x="433.94" y="340" as="sourcePoint" />
            <mxPoint x="513.94" y="380" as="targetPoint" />
            <Array as="points">
              <mxPoint x="633.94" y="410" />
              <mxPoint x="633.94" y="500" />
            </Array>
          </mxGeometry>
        </mxCell>
        <mxCell id="pKaPI90kB8utBbzEc85i-30" value="" style="rounded=0;html=1;jettySize=auto;orthogonalLoop=1;fontSize=11;endArrow=block;endFill=0;endSize=8;strokeWidth=1;shadow=0;labelBackgroundColor=none;edgeStyle=orthogonalEdgeStyle;entryX=0.5;entryY=0;entryDx=0;entryDy=0;exitX=0.5;exitY=1;exitDx=0;exitDy=0;" edge="1" parent="WIyWlLk6GJQsqaUBKTNV-1" source="pKaPI90kB8utBbzEc85i-17" target="WIyWlLk6GJQsqaUBKTNV-6">
          <mxGeometry y="20" relative="1" as="geometry">
            <mxPoint as="offset" />
            <mxPoint x="655.94" y="640" as="sourcePoint" />
            <mxPoint x="253.94" y="520" as="targetPoint" />
            <Array as="points" />
          </mxGeometry>
        </mxCell>
        <mxCell id="pKaPI90kB8utBbzEc85i-33" value="" style="rounded=0;html=1;jettySize=auto;orthogonalLoop=1;fontSize=11;endArrow=none;endFill=0;endSize=8;strokeWidth=1;shadow=0;labelBackgroundColor=none;edgeStyle=orthogonalEdgeStyle;" edge="1" parent="WIyWlLk6GJQsqaUBKTNV-1">
          <mxGeometry relative="1" as="geometry">
            <mxPoint x="633.94" y="610" as="sourcePoint" />
            <mxPoint x="243.94" y="610" as="targetPoint" />
          </mxGeometry>
        </mxCell>
        <mxCell id="pKaPI90kB8utBbzEc85i-34" value="" style="rounded=0;html=1;jettySize=auto;orthogonalLoop=1;fontSize=11;endArrow=block;endFill=0;endSize=8;strokeWidth=1;shadow=0;labelBackgroundColor=none;edgeStyle=orthogonalEdgeStyle;exitX=0.456;exitY=0.993;exitDx=0;exitDy=0;exitPerimeter=0;" edge="1" parent="WIyWlLk6GJQsqaUBKTNV-1">
          <mxGeometry y="20" relative="1" as="geometry">
            <mxPoint as="offset" />
            <mxPoint x="373.98" y="569.9999999999999" as="sourcePoint" />
            <mxPoint x="374.14" y="610.42" as="targetPoint" />
            <Array as="points">
              <mxPoint x="374.14" y="590.42" />
              <mxPoint x="374.14" y="590.42" />
            </Array>
          </mxGeometry>
        </mxCell>
        <mxCell id="pKaPI90kB8utBbzEc85i-35" value="" style="rounded=0;html=1;jettySize=auto;orthogonalLoop=1;fontSize=11;endArrow=block;endFill=0;endSize=8;strokeWidth=1;shadow=0;labelBackgroundColor=none;edgeStyle=orthogonalEdgeStyle;exitX=0.456;exitY=0.993;exitDx=0;exitDy=0;exitPerimeter=0;" edge="1" parent="WIyWlLk6GJQsqaUBKTNV-1">
          <mxGeometry y="20" relative="1" as="geometry">
            <mxPoint as="offset" />
            <mxPoint x="503.99000000000007" y="569.9999999999999" as="sourcePoint" />
            <mxPoint x="504.15000000000003" y="610.42" as="targetPoint" />
            <Array as="points">
              <mxPoint x="504.15000000000003" y="590.42" />
              <mxPoint x="504.15000000000003" y="590.42" />
            </Array>
          </mxGeometry>
        </mxCell>
        <mxCell id="pKaPI90kB8utBbzEc85i-37" value="" style="rounded=0;html=1;jettySize=auto;orthogonalLoop=1;fontSize=11;endArrow=block;endFill=0;endSize=8;strokeWidth=1;shadow=0;labelBackgroundColor=none;edgeStyle=orthogonalEdgeStyle;exitX=0.456;exitY=0.993;exitDx=0;exitDy=0;exitPerimeter=0;" edge="1" parent="WIyWlLk6GJQsqaUBKTNV-1">
          <mxGeometry y="20" relative="1" as="geometry">
            <mxPoint as="offset" />
            <mxPoint x="633.8600000000001" y="569.9999999999999" as="sourcePoint" />
            <mxPoint x="634.02" y="610.42" as="targetPoint" />
            <Array as="points">
              <mxPoint x="634.02" y="590.42" />
              <mxPoint x="634.02" y="590.42" />
            </Array>
          </mxGeometry>
        </mxCell>
      </root>
    </mxGraphModel>
  </diagram>
</mxfile>
